<?xml version="1.0" encoding="UTF-8"?>
<svg id="Layer_1" data-name="Layer 1" xmlns="http://www.w3.org/2000/svg" viewBox="0 0 120 24">
  <defs>
    <style>
      .cls-1 {
        fill: none;
      }

      .cls-2 {
        stroke: #000;
        stroke-miterlimit: 10;
        stroke-width: .06px;
      }
    </style>
  </defs>
  <g>
    <path d="M46.36,13.16c-.34,4.66-4.42,6.05-9.38,6.05-5.17-.01-9.43-1.51-9.41-6.73v-1c-.02-5.21,4.25-6.71,9.41-6.73,4.96,.01,9.04,1.4,9.38,6.05h-5.51c-.5-1.35-2.03-1.67-3.88-1.67-2.19,.03-4.06,.42-4.03,2.69v.34c-.03,2.25,1.83,2.66,4.03,2.69,1.85,0,3.38-.33,3.88-1.68h5.51Z"/>
    <path d="M53.33,14.17v4.71h-5.37V5.09h5.37v4.71h8.07V5.09h5.38v13.78h-5.38v-4.71h-8.07Z"/>
    <path d="M75.28,5.09v13.78h-5.37V5.09h5.37Z"/>
    <path d="M91.41,5.11c2.84-.03,5.25,2.36,5.21,5.21,.04,2.84-2.37,5.25-5.21,5.21h-7.91v3.36h-5.37V5.11h13.28Zm-1.34,6.38c.32,0,.59-.11,.82-.34,.24-.24,.35-.51,.35-.83s-.11-.6-.35-.83c-.23-.24-.5-.35-.82-.35h-6.56v2.35h6.56Z"/>
    <path d="M107.2,10.43c3.84,.19,9.25,.46,9.24,3.92,0,3.94-4.51,4.87-9.35,4.87-4.83-.01-8.84-.59-9.35-4.87h5.63c.62,1.07,2.04,1.34,3.72,1.34s3.72-.28,3.72-1.34c0-.61-1.67-.7-3.84-.8-3.84-.19-9.25-.46-9.24-3.91,0-3.94,4.51-4.88,9.35-4.88,4.83,.03,8.84,.57,9.35,4.88h-5.63c-.62-1.09-2.04-1.34-3.72-1.34s-3.72,.25-3.72,1.34c0,.6,1.67,.69,3.84,.79Z"/>
  </g>
  <rect class="cls-1" width="24" height="24"/>
  <circle class="cls-2" cx="12" cy="20.7" r="3"/>
  <circle class="cls-2" cx="4.46" cy="16.35" r="3"/>
  <circle class="cls-2" cx="4.46" cy="7.65" r="3"/>
  <circle class="cls-2" cx="12" cy="3.3" r="3"/>
  <circle class="cls-2" cx="19.54" cy="7.65" r="3"/>
  <circle class="cls-2" cx="19.54" cy="16.35" r="3"/>
</svg>